<svg xmlns="http://www.w3.org/2000/svg" xmlns:xlink="http://www.w3.org/1999/xlink" contentStyleType="text/css" data-diagram-type="DESCRIPTION" height="338px" preserveAspectRatio="none" style="width:565px;height:338px;background:#FFFFFF;" version="1.1" viewBox="0 0 565 338" width="565px" zoomAndPan="magnify"><defs/><g><!--cluster flux-demo --><g class="cluster" data-entity="flux-demo " data-source-line="2" data-uid="ent0003" id="cluster_flux-demo "><path d="M8.76,6 L94.0539,6 A3.75,3.75 0 0 1 96.5539,8.5 L103.5539,28.2969 L302.76,28.2969 A2.5,2.5 0 0 1 305.26,30.7969 L305.26,207.59 A2.5,2.5 0 0 1 302.76,210.09 L8.76,210.09 A2.5,2.5 0 0 1 6.26,207.59 L6.26,8.5 A2.5,2.5 0 0 1 8.76,6" fill="#BBFF77" style="stroke:#000000;stroke-width:1.5;"/><line style="stroke:#000000;stroke-width:1.5;" x1="6.26" x2="103.5539" y1="28.2969" y2="28.2969"/><text fill="#000000" font-family="sans-serif" font-size="14" font-weight="bold" lengthAdjust="spacing" textLength="79.4199" x="10.26" y="20.9951">flux-demo</text></g><!--cluster hello --><g class="cluster" data-entity="hello " data-source-line="9" data-uid="ent0008" id="cluster_hello "><path d="M331.76,6 L376.3118,6 A3.75,3.75 0 0 1 378.8118,8.5 L385.8118,28.2969 L496.76,28.2969 A2.5,2.5 0 0 1 499.26,30.7969 L499.26,100.8 A2.5,2.5 0 0 1 496.76,103.3 L331.76,103.3 A2.5,2.5 0 0 1 329.26,100.8 L329.26,8.5 A2.5,2.5 0 0 1 331.76,6" fill="#FFCC44" style="stroke:#000000;stroke-width:1.5;"/><line style="stroke:#000000;stroke-width:1.5;" x1="329.26" x2="385.8118" y1="28.2969" y2="28.2969"/><text fill="#000000" font-family="sans-serif" font-size="14" font-weight="bold" lengthAdjust="spacing" textLength="38.6777" x="333.26" y="20.9951">hello</text></g><!--cluster do--><g class="cluster" data-entity="do" data-source-line="13" data-uid="ent0011" id="cluster_do"><path d="M145.76,234.09 L308.6077,234.09 A3.75,3.75 0 0 1 311.1077,236.59 L318.1077,256.3869 L317.76,256.3869 A2.5,2.5 0 0 1 320.26,258.8869 L320.26,328.89 A2.5,2.5 0 0 1 317.76,331.39 L145.76,331.39 A2.5,2.5 0 0 1 143.26,328.89 L143.26,236.59 A2.5,2.5 0 0 1 145.76,234.09" fill="#FFCC44" style="stroke:#000000;stroke-width:1.5;"/><line style="stroke:#000000;stroke-width:1.5;" x1="143.26" x2="318.1077" y1="256.3869" y2="256.3869"/><text fill="#000000" font-family="sans-serif" font-size="14" font-weight="bold" lengthAdjust="spacing" textLength="161.8477" x="147.26" y="249.0851">generation-progress</text></g><!--entity ui--><g class="entity" data-entity="ui" data-source-line="3" data-uid="ent0004" id="entity_ui"><rect fill="#88FF00" height="46.2969" rx="2.5" ry="2.5" style="stroke:#181818;stroke-width:0.5;" width="116.3232" x="22.1" y="41"/><rect fill="#88FF00" height="10" style="stroke:#181818;stroke-width:0.5;" width="15" x="118.4232" y="46"/><rect fill="#88FF00" height="2" style="stroke:#181818;stroke-width:0.5;" width="4" x="116.4232" y="48"/><rect fill="#88FF00" height="2" style="stroke:#181818;stroke-width:0.5;" width="4" x="116.4232" y="52"/><text fill="#000000" font-family="sans-serif" font-size="14" lengthAdjust="spacing" textLength="76.3232" x="37.1" y="73.9951">Web Client</text></g><!--entity api--><g class="entity" data-entity="api" data-source-line="4" data-uid="ent0005" id="entity_api"><rect fill="#88FF00" height="46.2969" rx="2.5" ry="2.5" style="stroke:#181818;stroke-width:0.5;" width="115.1611" x="173.68" y="41"/><rect fill="#88FF00" height="10" style="stroke:#181818;stroke-width:0.5;" width="15" x="268.8411" y="46"/><rect fill="#88FF00" height="2" style="stroke:#181818;stroke-width:0.5;" width="4" x="266.8411" y="48"/><rect fill="#88FF00" height="2" style="stroke:#181818;stroke-width:0.5;" width="4" x="266.8411" y="52"/><text fill="#000000" font-family="sans-serif" font-size="14" lengthAdjust="spacing" textLength="75.1611" x="188.68" y="73.9951">API Routes</text></g><!--entity d1--><g class="entity" data-entity="d1" data-source-line="5" data-uid="ent0006" id="entity_d1"><path d="M51.79,158.8 C51.79,148.8 107.2592,148.8 107.2592,148.8 C107.2592,148.8 162.7285,148.8 162.7285,158.8 L162.7285,184.0969 C162.7285,194.0969 107.2592,194.0969 107.2592,194.0969 C107.2592,194.0969 51.79,194.0969 51.79,184.0969 L51.79,158.8" fill="#88FF00" style="stroke:#181818;stroke-width:0.5;"/><path d="M51.79,158.8 C51.79,168.8 107.2592,168.8 107.2592,168.8 C107.2592,168.8 162.7285,168.8 162.7285,158.8" fill="none" style="stroke:#181818;stroke-width:0.5;"/><text fill="#000000" font-family="sans-serif" font-size="14" lengthAdjust="spacing" textLength="90.9385" x="61.79" y="185.7951">D1 Database</text></g><!--entity r2--><g class="entity" data-entity="r2" data-source-line="6" data-uid="ent0007" id="entity_r2"><rect fill="#88FF00" height="32.2969" rx="2.5" ry="2.5" style="stroke:#181818;stroke-width:0.5;" width="87.4697" x="201.53" y="157.3"/><rect fill="#88FF00" height="32.2969" rx="2.5" ry="2.5" style="stroke:#181818;stroke-width:0.5;" width="87.4697" x="197.53" y="153.3"/><text fill="#000000" font-family="sans-serif" font-size="14" lengthAdjust="spacing" textLength="71.4697" x="205.53" y="174.2951">R2 Bucket</text></g><!--entity wf--><g class="entity" data-entity="wf" data-source-line="10" data-uid="ent0009" id="entity_wf"><rect fill="#FFAA00" height="46.2969" rx="2.5" ry="2.5" style="stroke:#181818;stroke-width:0.5;" width="137.8906" x="345.31" y="41"/><rect fill="#FFAA00" height="10" style="stroke:#181818;stroke-width:0.5;" width="15" x="463.2006" y="46"/><rect fill="#FFAA00" height="2" style="stroke:#181818;stroke-width:0.5;" width="4" x="461.2006" y="48"/><rect fill="#FFAA00" height="2" style="stroke:#181818;stroke-width:0.5;" width="4" x="461.2006" y="52"/><text fill="#000000" font-family="sans-serif" font-size="14" lengthAdjust="spacing" textLength="97.8906" x="360.31" y="73.9951">Gen Workflow</text></g><!--entity ws--><g class="entity" data-entity="ws" data-source-line="14" data-uid="ent0012" id="entity_ws"><rect fill="#FFAA00" height="46.2969" rx="2.5" ry="2.5" style="stroke:#181818;stroke-width:0.5;" width="118.7021" x="171.91" y="269.09"/><rect fill="#FFAA00" height="10" style="stroke:#181818;stroke-width:0.5;" width="15" x="270.6121" y="274.09"/><rect fill="#FFAA00" height="2" style="stroke:#181818;stroke-width:0.5;" width="4" x="268.6121" y="276.09"/><rect fill="#FFAA00" height="2" style="stroke:#181818;stroke-width:0.5;" width="4" x="268.6121" y="280.09"/><text fill="#000000" font-family="sans-serif" font-size="14" lengthAdjust="spacing" textLength="78.7021" x="186.91" y="302.0851">WebSocket</text></g><!--entity ai--><g class="entity" data-entity="ai" data-source-line="1" data-uid="ent0002" id="entity_ai"><ellipse cx="357.2622" cy="163.3" fill="#F1F1F1" rx="12" ry="12" style="stroke:#181818;stroke-width:0.5;"/><line style="stroke:#181818;stroke-width:0.5;" x1="345.2622" x2="369.2622" y1="177.3" y2="177.3"/><text fill="#000000" font-family="sans-serif" font-size="14" lengthAdjust="spacing" textLength="67.4844" x="323.52" y="192.2951">AI Models</text></g><!--entity q--><g class="entity" data-entity="q" data-source-line="12" data-uid="ent0010" id="entity_q"><path d="M431.36,158.3 L553.1618,158.3 C558.1618,158.3 558.1618,171.4484 558.1618,171.4484 C558.1618,171.4484 558.1618,184.5969 553.1618,184.5969 L431.36,184.5969 C426.36,184.5969 426.36,171.4484 426.36,171.4484 C426.36,171.4484 426.36,158.3 431.36,158.3" fill="#FFAA00" style="stroke:#181818;stroke-width:0.5;"/><path d="M553.1618,158.3 C548.1618,158.3 548.1618,171.4484 548.1618,171.4484 C548.1618,184.5969 553.1618,184.5969 553.1618,184.5969" fill="none" style="stroke:#181818;stroke-width:0.5;"/><text fill="#000000" font-family="sans-serif" font-size="14" lengthAdjust="spacing" textLength="111.8018" x="431.36" y="176.2951">Message Queue</text></g><!--link api to wf--><g class="link" data-entity-1="api" data-entity-2="wf" data-source-line="17" data-uid="lnk13" id="link_api_wf"><path d="M289.16,79.17 C307.73,81.76 320.325,82.747 338.895,81.047" fill="none" id="api-to-wf" style="stroke:#181818;stroke-width:1;"/><polygon fill="#181818" points="344.87,80.5,335.5428,77.3371,339.8908,80.9558,336.2721,85.3038,344.87,80.5" style="stroke:#181818;stroke-width:1;"/></g><!--link wf to ai--><g class="link" data-entity-1="wf" data-entity-2="ai" data-source-line="18" data-uid="lnk14" id="link_wf_ai"><path d="M399.1735,93.0164 C389.7535,110.4164 382.4751,123.8528 372.9151,141.5228" fill="none" id="wf-ai" style="stroke:#181818;stroke-width:1;"/><polygon fill="#181818" points="402.03,87.74,394.2276,93.7502,399.6496,92.137,401.2628,97.5589,402.03,87.74" style="stroke:#181818;stroke-width:1;"/><polygon fill="#181818" points="370.06,146.8,377.8608,140.7877,372.4393,142.4024,370.8245,136.9809,370.06,146.8" style="stroke:#181818;stroke-width:1;"/></g><!--link wf to q--><g class="link" data-entity-1="wf" data-entity-2="q" data-source-line="19" data-uid="lnk15" id="link_wf_q"><path d="M430.99,87.74 C446.93,109.25 466.7482,136.009 479.5282,153.259" fill="none" id="wf-to-q" style="stroke:#181818;stroke-width:1;"/><polygon fill="#181818" points="483.1,158.08,480.9564,148.4673,480.1235,154.0625,474.5283,153.2296,483.1,158.08" style="stroke:#181818;stroke-width:1;"/></g><!--link q to ws--><g class="link" data-entity-1="q" data-entity-2="ws" data-source-line="20" data-uid="lnk16" id="link_q_ws"><path d="M470.83,184.91 C454.05,194.47 429.98,207.74 408.26,218.09 C369.54,236.55 330.4799,252.7744 295.7199,266.5144" fill="none" id="q-to-ws" style="stroke:#181818;stroke-width:1;"/><polygon fill="#181818" points="290.14,268.72,299.9803,269.1315,294.7899,266.882,297.0394,261.6916,290.14,268.72" style="stroke:#181818;stroke-width:1;"/></g><!--link wf to d1--><g class="link" data-entity-1="wf" data-entity-2="d1" data-source-line="21" data-uid="lnk17" id="link_wf_d1"><path d="M364.29,87.79 C345.92,95.72 324.82,104.37 305.26,111.3 C250.76,130.6 235.6,130.56 180.26,147.3 C174.66,148.99 174.5593,149.0082 168.7393,150.8182" fill="none" id="wf-to-d1" style="stroke:#181818;stroke-width:1;"/><polygon fill="#181818" points="163.01,152.6,172.7919,153.7468,167.7844,151.1152,170.4161,146.1077,163.01,152.6" style="stroke:#181818;stroke-width:1;"/></g><!--link wf to r2--><g class="link" data-entity-1="wf" data-entity-2="r2" data-source-line="22" data-uid="lnk18" id="link_wf_r2"><path d="M377.58,87.74 C345.88,107.26 305.829,131.9139 276.809,149.7839" fill="none" id="wf-to-r2" style="stroke:#181818;stroke-width:1;"/><polygon fill="#181818" points="271.7,152.93,281.4609,151.6169,275.9575,150.3083,277.2662,144.8049,271.7,152.93" style="stroke:#181818;stroke-width:1;"/></g><!--link ui to api--><g class="link" data-entity-1="ui" data-entity-2="api" data-source-line="23" data-uid="lnk19" id="link_ui_api"><path d="M138.65,64.15 C150.23,64.15 155.81,64.15 167.38,64.15" fill="none" id="ui-to-api" style="stroke:#181818;stroke-width:1;"/><polygon fill="#181818" points="173.38,64.15,164.38,60.15,168.38,64.15,164.38,68.15,173.38,64.15" style="stroke:#181818;stroke-width:1;"/></g><!--reverse link ui to ws--><g class="link" data-entity-1="ui" data-entity-2="ws" data-source-line="24" data-uid="lnk20" id="link_ui_ws"><path d="M58.8805,92.3993 C36.0005,123.9893 6,177.46 34.26,218.09 C64.98,262.27 125.7,279.83 171.65,286.77" fill="none" id="ui-backto-ws" style="stroke:#181818;stroke-width:1;"/><polygon fill="#181818" points="62.4,87.54,53.8812,92.4826,59.4671,91.5894,60.3603,97.1753,62.4,87.54" style="stroke:#181818;stroke-width:1;"/></g><!--link api to d1--><g class="link" data-entity-1="api" data-entity-2="d1" data-source-line="25" data-uid="lnk21" id="link_api_d1"><path d="M204.66,87.74 C183.45,105.74 153.94,130.81 132.97,148.61" fill="none" id="api-d1" style="stroke:#181818;stroke-width:1;stroke-dasharray:7,7;"/></g><!--link api to r2--><g class="link" data-entity-1="api" data-entity-2="r2" data-source-line="26" data-uid="lnk22" id="link_api_r2"><path d="M233.83,87.74 C236.07,107.32 239.25,135.24 241.28,153.1" fill="none" id="api-r2" style="stroke:#181818;stroke-width:1;stroke-dasharray:7,7;"/></g><!--SRC=[HL3BJiCm4BpxArRkEHM9aE1G8RLKGZrKWdBe0N5matMmujg97me8yUzudQQzZJspCxEB9gZm0tozWxrjK7iEmeDGh1Tr9re4BdNyBXeyM-2mECa7-6K07qSymRDMQC8d3KG5YqTvHypwTGS76mFwp8Z-IZKYY9FmoNDRmlRoo7bDEMjggpNMGLdZWHygsCIwmv15hff4V-nMxWkrpiLaVP-BrVRSMvDg0Nz10qVhEgdjc0r6cNI238Q8CKtlqNkoUQDdbWoJukhVea4dg4xHEzkwD30LjhT8kiMxfPfvuT7FAOnsBugd5CnIzefWkco2X0OsJAIVVvfoHgvYwQ8axnMXLK4oibikINP1hle7]--></g></svg>